<svg id="Layer_1" data-name="Layer 1" xmlns="http://www.w3.org/2000/svg" viewBox="0 0 33.61 60.5"><defs><style>.cls-1{fill:none;stroke:#010101;stroke-linecap:round;stroke-linejoin:round;stroke-width:3px;}</style></defs><title>anal</title><path class="cls-1" d="M5.09,59H28.52c3.84,0,5-3.38,1.51-5a36.91,36.91,0,0,0-5.66-2.08A3.87,3.87,0,0,1,21.57,49L20.1,42.25c-.27-1.25,4.41-8.46,7.63-12.52C29.68,27.29,24.26,1.5,16.21,1.5h0C8.16,1.5,2.9,27.5,5.09,30c3.33,3.81,8.07,11,7.77,12.35l-1.54,6.74A3.85,3.85,0,0,1,8.63,52a29.63,29.63,0,0,0-5.2,2.12C.11,55.82,1.34,59,5.09,59Z"/><path class="cls-1" d="M13.89,9.54S9.5,15.93,9.56,26.85"/></svg>