<svg id="Layer_1" data-name="Layer 1" xmlns="http://www.w3.org/2000/svg" viewBox="0 0 40.47 53.83"><defs><style>.cls-1{fill:#010101;}</style></defs><title>comesticos</title><path class="cls-1" d="M30.14,41.42v6.5a2.92,2.92,0,0,1-2.92,2.91H14.16a2.92,2.92,0,0,1-2.92-2.91v-6.5h18.9m3-3H8.24v9.5a5.92,5.92,0,0,0,5.92,5.91H27.22a5.92,5.92,0,0,0,5.92-5.91v-9.5Z"/><path class="cls-1" d="M37.37,3,31.22,29.69a2.64,2.64,0,0,1-2.58,2.06h-16a2.65,2.65,0,0,1-2.57-2L3.12,3H37.37m.5-3H2.6A2.61,2.61,0,0,0,.08,3.25L7.15,30.51a5.64,5.64,0,0,0,5.47,4.24h16a5.67,5.67,0,0,0,5.51-4.38L40.4,3.18A2.59,2.59,0,0,0,37.87,0Z"/><path class="cls-1" d="M8.85,5.89s-1.95,3.55.39,5.69c1.94,1.77,4.07-.07,3.68-2.2S8.85,5.89,8.85,5.89Z"/></svg>