<svg id="Layer_1" data-name="Layer 1" xmlns="http://www.w3.org/2000/svg" viewBox="0 0 54.81 63.13"><defs><style>.cls-1{fill:#010101;}.cls-2,.cls-3{fill:none;stroke:#010101;stroke-linecap:round;stroke-linejoin:round;}.cls-2{stroke-width:3px;}</style></defs><title>fantasia</title><path class="cls-1" d="M45.44,13.46a6.21,6.21,0,0,1,6.35,5.61c0,.17,0,.33,0,.49,0,5.56-6.09,10.19-11.3,12.46l-13,5.68h-.15L14.3,32C9.09,29.75,3,25.12,3,19.56c0-.16,0-.32,0-.49a6.21,6.21,0,0,1,6.34-5.61A6.3,6.3,0,0,1,13.55,15,40.15,40.15,0,0,1,24.6,30.75a3,3,0,0,0,5.61,0A40.15,40.15,0,0,1,41.26,15a6.3,6.3,0,0,1,4.18-1.58m0-3a9.26,9.26,0,0,0-6.16,2.33A43.26,43.26,0,0,0,27.4,29.68,43.15,43.15,0,0,0,15.53,12.79a9.26,9.26,0,0,0-6.17-2.33A9.2,9.2,0,0,0,0,18.84c0,.24,0,.49,0,.72,0,6.8,6.39,12.29,13.1,15.21l13.11,5.71a2.68,2.68,0,0,0,1.05.22h.28a2.69,2.69,0,0,0,1.06-.22l13.11-5.71c6.71-2.92,13.1-8.41,13.1-15.21,0-.23,0-.48,0-.72a9.2,9.2,0,0,0-9.34-8.38Z"/><path class="cls-2" d="M3.81,14.12A63.18,63.18,0,0,0,12.57,1.5"/><path class="cls-2" d="M51.25,14.49A62.92,62.92,0,0,1,42.5,1.87"/><path class="cls-1" d="M8.22,39.94l17.17,5.69.48.12a10.4,10.4,0,0,0,3.15,0,3.89,3.89,0,0,0,.49-.12L46.58,40h0L39.84,52.68,38.49,53a15.64,15.64,0,0,0-9.2,7.13H25.81a17.52,17.52,0,0,0-10.74-7.48l-.39-.06L8.23,40h0M46.5,36.81l-17.94,6a7,7,0,0,1-2.23,0l-18-6a3.09,3.09,0,0,0-2.75,4.5l7.13,14,1.86.33A14.23,14.23,0,0,1,24,63l.05.12h7.17a12.58,12.58,0,0,1,8-7.21l2.66-.64,7.38-13.92a3.1,3.1,0,0,0-2.73-4.55Z"/><line class="cls-3" x1="22.15" y1="48.79" x2="33.65" y2="48.79"/><circle class="cls-1" cx="21.15" cy="48.79" r="1.08"/><circle class="cls-1" cx="33.66" cy="48.79" r="1.08"/><line class="cls-3" x1="23.97" y1="51.58" x2="31.49" y2="51.58"/><circle class="cls-1" cx="23.31" cy="51.58" r="0.71"/><circle class="cls-1" cx="31.49" cy="51.58" r="0.71"/></svg>