<svg id="Layer_1" data-name="Layer 1" xmlns="http://www.w3.org/2000/svg" viewBox="0 0 46.53 61.5"><defs><style>.cls-1{fill:#010101;}.cls-2,.cls-3{fill:none;stroke:#010101;stroke-linecap:round;stroke-linejoin:round;}.cls-2{stroke-width:3px;}.cls-3{stroke-width:2px;}</style></defs><title>vibradors</title><path class="cls-1" d="M30.83,54.67V58.5H10.66V54.67H30.83m1.25-3H9.41a1.75,1.75,0,0,0-1.75,1.75v6.33A1.75,1.75,0,0,0,9.41,61.5H32.08a1.75,1.75,0,0,0,1.75-1.75V53.42a1.75,1.75,0,0,0-1.75-1.75Z"/><path class="cls-1" d="M20.74,7.83A10.11,10.11,0,0,1,30.83,17.92V44.83H10.66V17.92A10.1,10.1,0,0,1,20.74,7.83m0-3h0A13.09,13.09,0,0,0,7.66,17.92V45.65a2.19,2.19,0,0,0,2.19,2.18H31.64a2.19,2.19,0,0,0,2.19-2.18V17.92A13.09,13.09,0,0,0,20.74,4.83Z"/><path class="cls-2" d="M18.54,11.71s-4.5.75-4.88,7.12"/><path class="cls-2" d="M4.54,12.23s1-6.23,6.79-8.52"/><path class="cls-3" d="M1,8.17S1.8,2.93,6.7,1"/><path class="cls-2" d="M42,41.22s-1,6.23-6.78,8.52"/><path class="cls-3" d="M45.53,45.28s-.8,5.24-5.7,7.17"/></svg>